<svg xmlns="http://www.w3.org/2000/svg" width="1995.286" height="45.726" viewBox="0 0 1995.286 45.726"><defs><style>.a{fill:#b2968b;stroke:#b2968b;}</style></defs><g transform="translate(52.163 -84.095)"><g transform="translate(-142.743 40.571)"><path class="a" d="M4.644-18.995s-2.967-1.118-2.967-5.633c0-4.386,3.913-10.965,19.737-10.965a43.774,43.774,0,0,1,5.934.43c2.666-3.311,8.342-5.16,15.265-5.16,8.514,0,19.436,4.773,29.842,9.46C83.463-25.961,96.019-20.5,106.21-20.5c9.89,0,14.448-4.988,14.448-9.761s-4.085-9.89-11.223-9.89c-7.052,0-8.385,4.042-8.385,4.042a.526.526,0,0,1-.6.215c-.344-.129-.172-.688-.172-.688s1.419-4.429,9.159-4.429c7.654,0,12.083,5.547,12.083,10.75S116.7-19.64,106.21-19.64c-10.75,0-22.618-5.332-34.1-10.449-10.621-4.773-20.9-9.374-29.5-9.374-6.364,0-11.653,1.591-14.276,4.472,11.954,2.107,19.823,9.245,19.823,13.76,0,3.784-2.623,5.332-6.751,5.332-7.181,0-15.652-5.891-15.652-14.706a7.069,7.069,0,0,1,1.075-3.784,44.137,44.137,0,0,0-5.418-.344c-15.136,0-18.877,6.063-18.877,10.1,0,3.913,2.451,4.859,2.451,4.859s.387.3.215.6S4.644-18.995,4.644-18.995ZM26.617-30.6c0,8.3,8.041,13.846,14.792,13.846,3.612,0,5.891-1.29,5.891-4.472,0-4.257-7.783-11.094-19.565-12.986A6.2,6.2,0,0,0,26.617-30.6Z" transform="matrix(-0.996, -0.087, 0.087, -0.996, 338.38, 38.818)"/><path class="a" d="M4.644-23.005s-2.967,1.118-2.967,5.633c0,4.386,3.913,10.965,19.737,10.965a43.774,43.774,0,0,0,5.934-.43c2.666,3.311,8.342,5.16,15.265,5.16,8.514,0,19.436-4.773,29.842-9.46C83.463-16.039,96.019-21.5,106.21-21.5c9.89,0,14.448,4.988,14.448,9.761s-4.085,9.89-11.223,9.89c-7.052,0-8.385-4.042-8.385-4.042a.526.526,0,0,0-.6-.215c-.344.129-.172.688-.172.688s1.419,4.429,9.159,4.429c7.654,0,12.083-5.547,12.083-10.75S116.7-22.36,106.21-22.36c-10.75,0-22.618,5.332-34.1,10.449-10.621,4.773-20.9,9.374-29.5,9.374-6.364,0-11.653-1.591-14.276-4.472C40.291-9.116,48.16-16.254,48.16-20.769c0-3.784-2.623-5.332-6.751-5.332-7.181,0-15.652,5.891-15.652,14.706a7.069,7.069,0,0,0,1.075,3.784,44.137,44.137,0,0,1-5.418.344c-15.136,0-18.877-6.063-18.877-10.1,0-3.913,2.451-4.859,2.451-4.859s.387-.3.215-.6S4.644-23.005,4.644-23.005ZM26.617-11.4c0-8.3,8.041-13.846,14.792-13.846,3.612,0,5.891,1.29,5.891,4.472,0,4.257-7.783,11.094-19.565,12.986A6.2,6.2,0,0,1,26.617-11.4Z" transform="matrix(0.996, -0.087, 0.087, 0.996, 91.726, 89.839)"/></g><g transform="translate(107.257 40.571)"><path class="a" d="M4.644-18.995s-2.967-1.118-2.967-5.633c0-4.386,3.913-10.965,19.737-10.965a43.774,43.774,0,0,1,5.934.43c2.666-3.311,8.342-5.16,15.265-5.16,8.514,0,19.436,4.773,29.842,9.46C83.463-25.961,96.019-20.5,106.21-20.5c9.89,0,14.448-4.988,14.448-9.761s-4.085-9.89-11.223-9.89c-7.052,0-8.385,4.042-8.385,4.042a.526.526,0,0,1-.6.215c-.344-.129-.172-.688-.172-.688s1.419-4.429,9.159-4.429c7.654,0,12.083,5.547,12.083,10.75S116.7-19.64,106.21-19.64c-10.75,0-22.618-5.332-34.1-10.449-10.621-4.773-20.9-9.374-29.5-9.374-6.364,0-11.653,1.591-14.276,4.472,11.954,2.107,19.823,9.245,19.823,13.76,0,3.784-2.623,5.332-6.751,5.332-7.181,0-15.652-5.891-15.652-14.706a7.069,7.069,0,0,1,1.075-3.784,44.137,44.137,0,0,0-5.418-.344c-15.136,0-18.877,6.063-18.877,10.1,0,3.913,2.451,4.859,2.451,4.859s.387.3.215.6S4.644-18.995,4.644-18.995ZM26.617-30.6c0,8.3,8.041,13.846,14.792,13.846,3.612,0,5.891-1.29,5.891-4.472,0-4.257-7.783-11.094-19.565-12.986A6.2,6.2,0,0,0,26.617-30.6Z" transform="matrix(-0.996, -0.087, 0.087, -0.996, 338.38, 38.818)"/><path class="a" d="M4.644-23.005s-2.967,1.118-2.967,5.633c0,4.386,3.913,10.965,19.737,10.965a43.774,43.774,0,0,0,5.934-.43c2.666,3.311,8.342,5.16,15.265,5.16,8.514,0,19.436-4.773,29.842-9.46C83.463-16.039,96.019-21.5,106.21-21.5c9.89,0,14.448,4.988,14.448,9.761s-4.085,9.89-11.223,9.89c-7.052,0-8.385-4.042-8.385-4.042a.526.526,0,0,0-.6-.215c-.344.129-.172.688-.172.688s1.419,4.429,9.159,4.429c7.654,0,12.083-5.547,12.083-10.75S116.7-22.36,106.21-22.36c-10.75,0-22.618,5.332-34.1,10.449-10.621,4.773-20.9,9.374-29.5,9.374-6.364,0-11.653-1.591-14.276-4.472C40.291-9.116,48.16-16.254,48.16-20.769c0-3.784-2.623-5.332-6.751-5.332-7.181,0-15.652,5.891-15.652,14.706a7.069,7.069,0,0,0,1.075,3.784,44.137,44.137,0,0,1-5.418.344c-15.136,0-18.877-6.063-18.877-10.1,0-3.913,2.451-4.859,2.451-4.859s.387-.3.215-.6S4.644-23.005,4.644-23.005ZM26.617-11.4c0-8.3,8.041-13.846,14.792-13.846,3.612,0,5.891,1.29,5.891,4.472,0,4.257-7.783,11.094-19.565,12.986A6.2,6.2,0,0,1,26.617-11.4Z" transform="matrix(0.996, -0.087, 0.087, 0.996, 91.726, 89.839)"/></g><g transform="translate(357.257 40.571)"><path class="a" d="M4.644-18.995s-2.967-1.118-2.967-5.633c0-4.386,3.913-10.965,19.737-10.965a43.774,43.774,0,0,1,5.934.43c2.666-3.311,8.342-5.16,15.265-5.16,8.514,0,19.436,4.773,29.842,9.46C83.463-25.961,96.019-20.5,106.21-20.5c9.89,0,14.448-4.988,14.448-9.761s-4.085-9.89-11.223-9.89c-7.052,0-8.385,4.042-8.385,4.042a.526.526,0,0,1-.6.215c-.344-.129-.172-.688-.172-.688s1.419-4.429,9.159-4.429c7.654,0,12.083,5.547,12.083,10.75S116.7-19.64,106.21-19.64c-10.75,0-22.618-5.332-34.1-10.449-10.621-4.773-20.9-9.374-29.5-9.374-6.364,0-11.653,1.591-14.276,4.472,11.954,2.107,19.823,9.245,19.823,13.76,0,3.784-2.623,5.332-6.751,5.332-7.181,0-15.652-5.891-15.652-14.706a7.069,7.069,0,0,1,1.075-3.784,44.137,44.137,0,0,0-5.418-.344c-15.136,0-18.877,6.063-18.877,10.1,0,3.913,2.451,4.859,2.451,4.859s.387.3.215.6S4.644-18.995,4.644-18.995ZM26.617-30.6c0,8.3,8.041,13.846,14.792,13.846,3.612,0,5.891-1.29,5.891-4.472,0-4.257-7.783-11.094-19.565-12.986A6.2,6.2,0,0,0,26.617-30.6Z" transform="matrix(-0.996, -0.087, 0.087, -0.996, 338.38, 38.818)"/><path class="a" d="M4.644-23.005s-2.967,1.118-2.967,5.633c0,4.386,3.913,10.965,19.737,10.965a43.774,43.774,0,0,0,5.934-.43c2.666,3.311,8.342,5.16,15.265,5.16,8.514,0,19.436-4.773,29.842-9.46C83.463-16.039,96.019-21.5,106.21-21.5c9.89,0,14.448,4.988,14.448,9.761s-4.085,9.89-11.223,9.89c-7.052,0-8.385-4.042-8.385-4.042a.526.526,0,0,0-.6-.215c-.344.129-.172.688-.172.688s1.419,4.429,9.159,4.429c7.654,0,12.083-5.547,12.083-10.75S116.7-22.36,106.21-22.36c-10.75,0-22.618,5.332-34.1,10.449-10.621,4.773-20.9,9.374-29.5,9.374-6.364,0-11.653-1.591-14.276-4.472C40.291-9.116,48.16-16.254,48.16-20.769c0-3.784-2.623-5.332-6.751-5.332-7.181,0-15.652,5.891-15.652,14.706a7.069,7.069,0,0,0,1.075,3.784,44.137,44.137,0,0,1-5.418.344c-15.136,0-18.877-6.063-18.877-10.1,0-3.913,2.451-4.859,2.451-4.859s.387-.3.215-.6S4.644-23.005,4.644-23.005ZM26.617-11.4c0-8.3,8.041-13.846,14.792-13.846,3.612,0,5.891,1.29,5.891,4.472,0,4.257-7.783,11.094-19.565,12.986A6.2,6.2,0,0,1,26.617-11.4Z" transform="matrix(0.996, -0.087, 0.087, 0.996, 91.726, 89.839)"/></g><g transform="translate(607.257 40.571)"><path class="a" d="M4.644-18.995s-2.967-1.118-2.967-5.633c0-4.386,3.913-10.965,19.737-10.965a43.774,43.774,0,0,1,5.934.43c2.666-3.311,8.342-5.16,15.265-5.16,8.514,0,19.436,4.773,29.842,9.46C83.463-25.961,96.019-20.5,106.21-20.5c9.89,0,14.448-4.988,14.448-9.761s-4.085-9.89-11.223-9.89c-7.052,0-8.385,4.042-8.385,4.042a.526.526,0,0,1-.6.215c-.344-.129-.172-.688-.172-.688s1.419-4.429,9.159-4.429c7.654,0,12.083,5.547,12.083,10.75S116.7-19.64,106.21-19.64c-10.75,0-22.618-5.332-34.1-10.449-10.621-4.773-20.9-9.374-29.5-9.374-6.364,0-11.653,1.591-14.276,4.472,11.954,2.107,19.823,9.245,19.823,13.76,0,3.784-2.623,5.332-6.751,5.332-7.181,0-15.652-5.891-15.652-14.706a7.069,7.069,0,0,1,1.075-3.784,44.137,44.137,0,0,0-5.418-.344c-15.136,0-18.877,6.063-18.877,10.1,0,3.913,2.451,4.859,2.451,4.859s.387.3.215.6S4.644-18.995,4.644-18.995ZM26.617-30.6c0,8.3,8.041,13.846,14.792,13.846,3.612,0,5.891-1.29,5.891-4.472,0-4.257-7.783-11.094-19.565-12.986A6.2,6.2,0,0,0,26.617-30.6Z" transform="matrix(-0.996, -0.087, 0.087, -0.996, 338.38, 38.818)"/><path class="a" d="M4.644-23.005s-2.967,1.118-2.967,5.633c0,4.386,3.913,10.965,19.737,10.965a43.774,43.774,0,0,0,5.934-.43c2.666,3.311,8.342,5.16,15.265,5.16,8.514,0,19.436-4.773,29.842-9.46C83.463-16.039,96.019-21.5,106.21-21.5c9.89,0,14.448,4.988,14.448,9.761s-4.085,9.89-11.223,9.89c-7.052,0-8.385-4.042-8.385-4.042a.526.526,0,0,0-.6-.215c-.344.129-.172.688-.172.688s1.419,4.429,9.159,4.429c7.654,0,12.083-5.547,12.083-10.75S116.7-22.36,106.21-22.36c-10.75,0-22.618,5.332-34.1,10.449-10.621,4.773-20.9,9.374-29.5,9.374-6.364,0-11.653-1.591-14.276-4.472C40.291-9.116,48.16-16.254,48.16-20.769c0-3.784-2.623-5.332-6.751-5.332-7.181,0-15.652,5.891-15.652,14.706a7.069,7.069,0,0,0,1.075,3.784,44.137,44.137,0,0,1-5.418.344c-15.136,0-18.877-6.063-18.877-10.1,0-3.913,2.451-4.859,2.451-4.859s.387-.3.215-.6S4.644-23.005,4.644-23.005ZM26.617-11.4c0-8.3,8.041-13.846,14.792-13.846,3.612,0,5.891,1.29,5.891,4.472,0,4.257-7.783,11.094-19.565,12.986A6.2,6.2,0,0,1,26.617-11.4Z" transform="matrix(0.996, -0.087, 0.087, 0.996, 91.726, 89.839)"/></g><g transform="translate(857.257 40.571)"><path class="a" d="M4.644-18.995s-2.967-1.118-2.967-5.633c0-4.386,3.913-10.965,19.737-10.965a43.774,43.774,0,0,1,5.934.43c2.666-3.311,8.342-5.16,15.265-5.16,8.514,0,19.436,4.773,29.842,9.46C83.463-25.961,96.019-20.5,106.21-20.5c9.89,0,14.448-4.988,14.448-9.761s-4.085-9.89-11.223-9.89c-7.052,0-8.385,4.042-8.385,4.042a.526.526,0,0,1-.6.215c-.344-.129-.172-.688-.172-.688s1.419-4.429,9.159-4.429c7.654,0,12.083,5.547,12.083,10.75S116.7-19.64,106.21-19.64c-10.75,0-22.618-5.332-34.1-10.449-10.621-4.773-20.9-9.374-29.5-9.374-6.364,0-11.653,1.591-14.276,4.472,11.954,2.107,19.823,9.245,19.823,13.76,0,3.784-2.623,5.332-6.751,5.332-7.181,0-15.652-5.891-15.652-14.706a7.069,7.069,0,0,1,1.075-3.784,44.137,44.137,0,0,0-5.418-.344c-15.136,0-18.877,6.063-18.877,10.1,0,3.913,2.451,4.859,2.451,4.859s.387.3.215.6S4.644-18.995,4.644-18.995ZM26.617-30.6c0,8.3,8.041,13.846,14.792,13.846,3.612,0,5.891-1.29,5.891-4.472,0-4.257-7.783-11.094-19.565-12.986A6.2,6.2,0,0,0,26.617-30.6Z" transform="matrix(-0.996, -0.087, 0.087, -0.996, 338.38, 38.818)"/><path class="a" d="M4.644-23.005s-2.967,1.118-2.967,5.633c0,4.386,3.913,10.965,19.737,10.965a43.774,43.774,0,0,0,5.934-.43c2.666,3.311,8.342,5.16,15.265,5.16,8.514,0,19.436-4.773,29.842-9.46C83.463-16.039,96.019-21.5,106.21-21.5c9.89,0,14.448,4.988,14.448,9.761s-4.085,9.89-11.223,9.89c-7.052,0-8.385-4.042-8.385-4.042a.526.526,0,0,0-.6-.215c-.344.129-.172.688-.172.688s1.419,4.429,9.159,4.429c7.654,0,12.083-5.547,12.083-10.75S116.7-22.36,106.21-22.36c-10.75,0-22.618,5.332-34.1,10.449-10.621,4.773-20.9,9.374-29.5,9.374-6.364,0-11.653-1.591-14.276-4.472C40.291-9.116,48.16-16.254,48.16-20.769c0-3.784-2.623-5.332-6.751-5.332-7.181,0-15.652,5.891-15.652,14.706a7.069,7.069,0,0,0,1.075,3.784,44.137,44.137,0,0,1-5.418.344c-15.136,0-18.877-6.063-18.877-10.1,0-3.913,2.451-4.859,2.451-4.859s.387-.3.215-.6S4.644-23.005,4.644-23.005ZM26.617-11.4c0-8.3,8.041-13.846,14.792-13.846,3.612,0,5.891,1.29,5.891,4.472,0,4.257-7.783,11.094-19.565,12.986A6.2,6.2,0,0,1,26.617-11.4Z" transform="matrix(0.996, -0.087, 0.087, 0.996, 91.726, 89.839)"/></g><g transform="translate(1107.257 40.571)"><path class="a" d="M4.644-18.995s-2.967-1.118-2.967-5.633c0-4.386,3.913-10.965,19.737-10.965a43.774,43.774,0,0,1,5.934.43c2.666-3.311,8.342-5.16,15.265-5.16,8.514,0,19.436,4.773,29.842,9.46C83.463-25.961,96.019-20.5,106.21-20.5c9.89,0,14.448-4.988,14.448-9.761s-4.085-9.89-11.223-9.89c-7.052,0-8.385,4.042-8.385,4.042a.526.526,0,0,1-.6.215c-.344-.129-.172-.688-.172-.688s1.419-4.429,9.159-4.429c7.654,0,12.083,5.547,12.083,10.75S116.7-19.64,106.21-19.64c-10.75,0-22.618-5.332-34.1-10.449-10.621-4.773-20.9-9.374-29.5-9.374-6.364,0-11.653,1.591-14.276,4.472,11.954,2.107,19.823,9.245,19.823,13.76,0,3.784-2.623,5.332-6.751,5.332-7.181,0-15.652-5.891-15.652-14.706a7.069,7.069,0,0,1,1.075-3.784,44.137,44.137,0,0,0-5.418-.344c-15.136,0-18.877,6.063-18.877,10.1,0,3.913,2.451,4.859,2.451,4.859s.387.3.215.6S4.644-18.995,4.644-18.995ZM26.617-30.6c0,8.3,8.041,13.846,14.792,13.846,3.612,0,5.891-1.29,5.891-4.472,0-4.257-7.783-11.094-19.565-12.986A6.2,6.2,0,0,0,26.617-30.6Z" transform="matrix(-0.996, -0.087, 0.087, -0.996, 338.38, 38.818)"/><path class="a" d="M4.644-23.005s-2.967,1.118-2.967,5.633c0,4.386,3.913,10.965,19.737,10.965a43.774,43.774,0,0,0,5.934-.43c2.666,3.311,8.342,5.16,15.265,5.16,8.514,0,19.436-4.773,29.842-9.46C83.463-16.039,96.019-21.5,106.21-21.5c9.89,0,14.448,4.988,14.448,9.761s-4.085,9.89-11.223,9.89c-7.052,0-8.385-4.042-8.385-4.042a.526.526,0,0,0-.6-.215c-.344.129-.172.688-.172.688s1.419,4.429,9.159,4.429c7.654,0,12.083-5.547,12.083-10.75S116.7-22.36,106.21-22.36c-10.75,0-22.618,5.332-34.1,10.449-10.621,4.773-20.9,9.374-29.5,9.374-6.364,0-11.653-1.591-14.276-4.472C40.291-9.116,48.16-16.254,48.16-20.769c0-3.784-2.623-5.332-6.751-5.332-7.181,0-15.652,5.891-15.652,14.706a7.069,7.069,0,0,0,1.075,3.784,44.137,44.137,0,0,1-5.418.344c-15.136,0-18.877-6.063-18.877-10.1,0-3.913,2.451-4.859,2.451-4.859s.387-.3.215-.6S4.644-23.005,4.644-23.005ZM26.617-11.4c0-8.3,8.041-13.846,14.792-13.846,3.612,0,5.891,1.29,5.891,4.472,0,4.257-7.783,11.094-19.565,12.986A6.2,6.2,0,0,1,26.617-11.4Z" transform="matrix(0.996, -0.087, 0.087, 0.996, 91.726, 89.839)"/></g><g transform="translate(1357.257 40.571)"><path class="a" d="M4.644-18.995s-2.967-1.118-2.967-5.633c0-4.386,3.913-10.965,19.737-10.965a43.774,43.774,0,0,1,5.934.43c2.666-3.311,8.342-5.16,15.265-5.16,8.514,0,19.436,4.773,29.842,9.46C83.463-25.961,96.019-20.5,106.21-20.5c9.89,0,14.448-4.988,14.448-9.761s-4.085-9.89-11.223-9.89c-7.052,0-8.385,4.042-8.385,4.042a.526.526,0,0,1-.6.215c-.344-.129-.172-.688-.172-.688s1.419-4.429,9.159-4.429c7.654,0,12.083,5.547,12.083,10.75S116.7-19.64,106.21-19.64c-10.75,0-22.618-5.332-34.1-10.449-10.621-4.773-20.9-9.374-29.5-9.374-6.364,0-11.653,1.591-14.276,4.472,11.954,2.107,19.823,9.245,19.823,13.76,0,3.784-2.623,5.332-6.751,5.332-7.181,0-15.652-5.891-15.652-14.706a7.069,7.069,0,0,1,1.075-3.784,44.137,44.137,0,0,0-5.418-.344c-15.136,0-18.877,6.063-18.877,10.1,0,3.913,2.451,4.859,2.451,4.859s.387.3.215.6S4.644-18.995,4.644-18.995ZM26.617-30.6c0,8.3,8.041,13.846,14.792,13.846,3.612,0,5.891-1.29,5.891-4.472,0-4.257-7.783-11.094-19.565-12.986A6.2,6.2,0,0,0,26.617-30.6Z" transform="matrix(-0.996, -0.087, 0.087, -0.996, 338.38, 38.818)"/><path class="a" d="M4.644-23.005s-2.967,1.118-2.967,5.633c0,4.386,3.913,10.965,19.737,10.965a43.774,43.774,0,0,0,5.934-.43c2.666,3.311,8.342,5.16,15.265,5.16,8.514,0,19.436-4.773,29.842-9.46C83.463-16.039,96.019-21.5,106.21-21.5c9.89,0,14.448,4.988,14.448,9.761s-4.085,9.89-11.223,9.89c-7.052,0-8.385-4.042-8.385-4.042a.526.526,0,0,0-.6-.215c-.344.129-.172.688-.172.688s1.419,4.429,9.159,4.429c7.654,0,12.083-5.547,12.083-10.75S116.7-22.36,106.21-22.36c-10.75,0-22.618,5.332-34.1,10.449-10.621,4.773-20.9,9.374-29.5,9.374-6.364,0-11.653-1.591-14.276-4.472C40.291-9.116,48.16-16.254,48.16-20.769c0-3.784-2.623-5.332-6.751-5.332-7.181,0-15.652,5.891-15.652,14.706a7.069,7.069,0,0,0,1.075,3.784,44.137,44.137,0,0,1-5.418.344c-15.136,0-18.877-6.063-18.877-10.1,0-3.913,2.451-4.859,2.451-4.859s.387-.3.215-.6S4.644-23.005,4.644-23.005ZM26.617-11.4c0-8.3,8.041-13.846,14.792-13.846,3.612,0,5.891,1.29,5.891,4.472,0,4.257-7.783,11.094-19.565,12.986A6.2,6.2,0,0,1,26.617-11.4Z" transform="matrix(0.996, -0.087, 0.087, 0.996, 91.726, 89.839)"/></g><g transform="translate(1607.257 40.571)"><path class="a" d="M4.644-18.995s-2.967-1.118-2.967-5.633c0-4.386,3.913-10.965,19.737-10.965a43.774,43.774,0,0,1,5.934.43c2.666-3.311,8.342-5.16,15.265-5.16,8.514,0,19.436,4.773,29.842,9.46C83.463-25.961,96.019-20.5,106.21-20.5c9.89,0,14.448-4.988,14.448-9.761s-4.085-9.89-11.223-9.89c-7.052,0-8.385,4.042-8.385,4.042a.526.526,0,0,1-.6.215c-.344-.129-.172-.688-.172-.688s1.419-4.429,9.159-4.429c7.654,0,12.083,5.547,12.083,10.75S116.7-19.64,106.21-19.64c-10.75,0-22.618-5.332-34.1-10.449-10.621-4.773-20.9-9.374-29.5-9.374-6.364,0-11.653,1.591-14.276,4.472,11.954,2.107,19.823,9.245,19.823,13.76,0,3.784-2.623,5.332-6.751,5.332-7.181,0-15.652-5.891-15.652-14.706a7.069,7.069,0,0,1,1.075-3.784,44.137,44.137,0,0,0-5.418-.344c-15.136,0-18.877,6.063-18.877,10.1,0,3.913,2.451,4.859,2.451,4.859s.387.3.215.6S4.644-18.995,4.644-18.995ZM26.617-30.6c0,8.3,8.041,13.846,14.792,13.846,3.612,0,5.891-1.29,5.891-4.472,0-4.257-7.783-11.094-19.565-12.986A6.2,6.2,0,0,0,26.617-30.6Z" transform="matrix(-0.996, -0.087, 0.087, -0.996, 338.38, 38.818)"/><path class="a" d="M4.644-23.005s-2.967,1.118-2.967,5.633c0,4.386,3.913,10.965,19.737,10.965a43.774,43.774,0,0,0,5.934-.43c2.666,3.311,8.342,5.16,15.265,5.16,8.514,0,19.436-4.773,29.842-9.46C83.463-16.039,96.019-21.5,106.21-21.5c9.89,0,14.448,4.988,14.448,9.761s-4.085,9.89-11.223,9.89c-7.052,0-8.385-4.042-8.385-4.042a.526.526,0,0,0-.6-.215c-.344.129-.172.688-.172.688s1.419,4.429,9.159,4.429c7.654,0,12.083-5.547,12.083-10.75S116.7-22.36,106.21-22.36c-10.75,0-22.618,5.332-34.1,10.449-10.621,4.773-20.9,9.374-29.5,9.374-6.364,0-11.653-1.591-14.276-4.472C40.291-9.116,48.16-16.254,48.16-20.769c0-3.784-2.623-5.332-6.751-5.332-7.181,0-15.652,5.891-15.652,14.706a7.069,7.069,0,0,0,1.075,3.784,44.137,44.137,0,0,1-5.418.344c-15.136,0-18.877-6.063-18.877-10.1,0-3.913,2.451-4.859,2.451-4.859s.387-.3.215-.6S4.644-23.005,4.644-23.005ZM26.617-11.4c0-8.3,8.041-13.846,14.792-13.846,3.612,0,5.891,1.29,5.891,4.472,0,4.257-7.783,11.094-19.565,12.986A6.2,6.2,0,0,1,26.617-11.4Z" transform="matrix(0.996, -0.087, 0.087, 0.996, 91.726, 89.839)"/></g></g></svg>