<svg xmlns="http://www.w3.org/2000/svg" xmlns:xlink="http://www.w3.org/1999/xlink" width="93" height="38" viewBox="0 0 93 38"><defs><style>.a{fill:#c1c1c1;}.b{clip-path:url(#a);}.c{fill:#718878;}</style><clipPath id="a"><rect class="a" width="93" height="38" transform="translate(913 2883)"/></clipPath></defs><g class="b" transform="translate(-913 -2883)"><path class="c" d="M36.134-8.188c0-3.026-2.4-5.162-5.607-5.162-7.12,0-8.188,11.3-13.083,14.418-1.6.979-3.382,1.869-4.9,2.937,1.869-4.183,3.115-7.654,5.34-11.036,3.649-5.518,8.188-9.879,13.172-14.151C35.066-24.475,47.7-24.208,47.7-30.705a4.813,4.813,0,0,0-5.162-4.984c-7.476,0-9.523,10.413-13.795,14.418l-2.759,2.492a57.417,57.417,0,0,0,1.78-7.743c3.649-4.005,5.874-9.167,8.01-14.24a21.02,21.02,0,0,1,4.094-6.23c3.115-3.738,10.68-7.387,10.68-13.083a5.78,5.78,0,0,0-5.963-5.607,6.7,6.7,0,0,0-5.34,2.581c-3.471,4.005-2.314,9.7-3.026,14.6-.445,2.225-.89,4.272-1.513,6.319-1.869,4.717-3.738,9.256-6.675,13.172a21.394,21.394,0,0,1,.267-3.293,35.071,35.071,0,0,0,3.56-15.931,15.132,15.132,0,0,0-1.335-6.942,4.194,4.194,0,0,0-3.916-2.314,5.589,5.589,0,0,0-3.916,1.6,8.721,8.721,0,0,0-2.581,6.408,9.862,9.862,0,0,0,.356,2.492c1.335,4.806,5.785,10.057,6.319,14.685A52.449,52.449,0,0,1,23.5-16.376,71.689,71.689,0,0,0,16.91-8.188l.89-3.738c1.157-5.251,2.848-10.947,2.848-15.4,0-3.382-1.246-8.366-5.34-8.366-3.649,0-5.518,3.026-5.518,6.319,0,6.586,7.387,10.146,6.586,17.177A42.5,42.5,0,0,1,9.434,6.052a28.474,28.474,0,0,1-8.01,7.476c-.178.267-.445.445-.445.712a.785.785,0,0,0,.8.712c1.424,0,6.23-5.251,8.989-8.01,1.869-2.136,4.183-3.293,7.743-4.272C25.365.89,36.134-.267,36.134-8.188ZM27.857-47.081a.855.855,0,0,0-.8-.623.838.838,0,0,0-.712.712,78.2,78.2,0,0,1,.623,10.057c-1.691-3.382-4.272-6.5-4.984-10.324a20.342,20.342,0,0,1-.178-2.225,7.243,7.243,0,0,1,1.424-4.895,4.011,4.011,0,0,1,3.2-1.691,3.263,3.263,0,0,1,2.759,1.691c.979,1.335,1.246,3.56,1.246,6.052A46.041,46.041,0,0,1,28.48-36.045,91.751,91.751,0,0,0,27.857-47.081Zm-.89,43.966a1.055,1.055,0,0,0,.445-.8.785.785,0,0,0-.712-.8c-.089,0-.356,0-.445.178a41.345,41.345,0,0,0-4.984,3.026c2.581-3.2,4.361-10.324,9.345-10.324,2.314,0,3.916,1.157,3.916,3.56,0,7.12-9.256,7.387-14.863,9.434C22.7-.623,24.208-1.6,26.967-3.115ZM45.212-57.85a1.445,1.445,0,0,0,.445-.8c0-.356-.267-.534-.623-.534a1.183,1.183,0,0,0-.623.267,53.281,53.281,0,0,0-6.586,9.7c.445-4.361-.445-9.434,2.492-12.994a5.338,5.338,0,0,1,4.272-2.047,4.115,4.115,0,0,1,4.361,4.183c0,5.251-8.9,10.591-10.057,12.1A44.38,44.38,0,0,1,45.212-57.85ZM16.554-27.234a.831.831,0,0,0-.89-.445c-.267.267-.623.623-.356,1.068a30.064,30.064,0,0,1,1.6,8.811c-1.513-3.827-5.7-6.764-5.7-11.659,0-2.759,2.047-5.073,4.183-5.073,3.2,0,3.738,5.251,3.738,8.188a54.6,54.6,0,0,1-.979,8.544C18.156-20.025,17.622-25.276,16.554-27.234Zm22.428-.534a.658.658,0,0,0,.356-.534c0-.356-.267-.534-.623-.534a2.019,2.019,0,0,0-.356.089l-5.429,4c2.492-3.2,4.717-9.523,9.523-9.523,2.225,0,3.649,1.335,3.649,3.2,0,4.806-8.1,5.429-12.282,7.12C35.244-25.1,37.647-26.789,38.982-27.768Z" transform="translate(925.459 2892.483) rotate(60)"/></g></svg>